<svg width="23" height="23" viewBox="0 0 23 23" fill="none" xmlns="http://www.w3.org/2000/svg">
<path d="M13.3996 0.599976H10.1996V3.79998H13.3996V0.599976ZM3.79961 3.79998V6.99998H6.99961V3.79998H3.79961ZM19.7996 3.79998H16.5996V6.99998H19.7996V3.79998ZM16.5996 16.6V6.99998H6.99961V16.6H16.5996ZM3.79961 10.2H0.599609V13.4H3.79961V10.2ZM10.1996 13.4V10.2H13.3996V13.4H10.1996ZM19.7996 10.2V13.4H22.9996V10.2H19.7996ZM3.79961 19.8H6.99961V16.6H3.79961V19.8ZM16.5996 19.8H19.7996V16.6H16.5996V19.8ZM10.1996 23H13.3996V19.8H10.1996V23Z" fill="#232323"/>
</svg>
